<svg width="366" height="29" viewBox="0 0 366 29" fill="none" xmlns="http://www.w3.org/2000/svg">
<rect width="366" height="29" rx="14.5" fill="black" fill-opacity="0.01"/>
<path d="M113.227 20.2734C112.378 20.2734 111.638 20.1406 111.008 19.875C110.378 19.6042 109.88 19.2292 109.516 18.75C109.151 18.2708 108.943 17.7161 108.891 17.0859L108.883 16.9844H110.609L110.617 17.0703C110.654 17.4089 110.786 17.7031 111.016 17.9531C111.25 18.2031 111.562 18.3984 111.953 18.5391C112.349 18.6797 112.799 18.75 113.305 18.75C113.779 18.75 114.201 18.6745 114.57 18.5234C114.94 18.3724 115.229 18.1641 115.438 17.8984C115.651 17.6328 115.758 17.3281 115.758 16.9844V16.9766C115.758 16.5443 115.594 16.1849 115.266 15.8984C114.938 15.612 114.401 15.388 113.656 15.2266L112.422 14.9688C111.281 14.724 110.451 14.3359 109.93 13.8047C109.409 13.2682 109.148 12.5833 109.148 11.75V11.7422C109.154 11.0911 109.328 10.5182 109.672 10.0234C110.021 9.52865 110.503 9.14323 111.117 8.86719C111.732 8.59115 112.438 8.45312 113.234 8.45312C114.031 8.45312 114.727 8.59115 115.32 8.86719C115.919 9.13802 116.391 9.50781 116.734 9.97656C117.083 10.4453 117.279 10.974 117.32 11.5625L117.328 11.6641H115.617L115.602 11.5625C115.555 11.2552 115.427 10.9818 115.219 10.7422C115.016 10.5026 114.742 10.3151 114.398 10.1797C114.06 10.0391 113.664 9.97135 113.211 9.97656C112.773 9.97656 112.383 10.0443 112.039 10.1797C111.695 10.3099 111.422 10.5 111.219 10.75C111.021 11 110.922 11.3021 110.922 11.6562V11.6641C110.922 12.0807 111.081 12.4297 111.398 12.7109C111.721 12.987 112.245 13.2031 112.969 13.3594L114.203 13.6328C115.385 13.8828 116.234 14.2578 116.75 14.7578C117.271 15.2578 117.531 15.9245 117.531 16.7578V16.7656C117.531 17.4844 117.354 18.1068 117 18.6328C116.651 19.1536 116.154 19.5573 115.508 19.8438C114.862 20.1302 114.102 20.2734 113.227 20.2734ZM123.234 20.1641C122.406 20.1641 121.69 19.987 121.086 19.6328C120.487 19.2786 120.026 18.7734 119.703 18.1172C119.38 17.4557 119.219 16.6719 119.219 15.7656V15.75C119.219 14.8385 119.38 14.0547 119.703 13.3984C120.031 12.7422 120.495 12.237 121.094 11.8828C121.698 11.5286 122.411 11.3516 123.234 11.3516C124.062 11.3516 124.776 11.5286 125.375 11.8828C125.974 12.2318 126.435 12.737 126.758 13.3984C127.086 14.0547 127.25 14.8385 127.25 15.75V15.7656C127.25 16.6719 127.086 17.4557 126.758 18.1172C126.435 18.7734 125.974 19.2786 125.375 19.6328C124.781 19.987 124.068 20.1641 123.234 20.1641ZM123.234 18.7422C123.719 18.7422 124.13 18.625 124.469 18.3906C124.807 18.151 125.065 17.8099 125.242 17.3672C125.419 16.9245 125.508 16.3906 125.508 15.7656V15.75C125.508 15.1198 125.419 14.5833 125.242 14.1406C125.065 13.6979 124.807 13.3594 124.469 13.125C124.13 12.8854 123.719 12.7656 123.234 12.7656C122.75 12.7656 122.339 12.8854 122 13.125C121.661 13.3594 121.401 13.6979 121.219 14.1406C121.042 14.5833 120.953 15.1198 120.953 15.75V15.7656C120.953 16.3906 121.042 16.9245 121.219 17.3672C121.401 17.8099 121.661 18.151 122 18.3906C122.339 18.625 122.75 18.7422 123.234 18.7422ZM129.266 20V11.5156H130.961V12.8203H131.094C131.281 12.3516 131.573 11.9896 131.969 11.7344C132.37 11.4792 132.849 11.3516 133.406 11.3516C133.792 11.3516 134.138 11.4141 134.445 11.5391C134.753 11.6641 135.016 11.8411 135.234 12.0703C135.458 12.2943 135.633 12.5599 135.758 12.8672H135.891C136.031 12.5599 136.229 12.2943 136.484 12.0703C136.74 11.8411 137.036 11.6641 137.375 11.5391C137.719 11.4141 138.083 11.3516 138.469 11.3516C139.042 11.3516 139.531 11.4635 139.938 11.6875C140.344 11.9062 140.654 12.224 140.867 12.6406C141.081 13.0573 141.188 13.5599 141.188 14.1484V20H139.492V14.5547C139.492 13.9714 139.357 13.5339 139.086 13.2422C138.82 12.9505 138.411 12.8047 137.859 12.8047C137.5 12.8047 137.185 12.888 136.914 13.0547C136.648 13.2161 136.44 13.4349 136.289 13.7109C136.143 13.9818 136.07 14.2891 136.07 14.6328V20H134.375V14.3828C134.375 13.8984 134.227 13.5156 133.93 13.2344C133.638 12.9479 133.242 12.8047 132.742 12.8047C132.404 12.8047 132.099 12.8932 131.828 13.0703C131.562 13.2474 131.352 13.487 131.195 13.7891C131.039 14.0859 130.961 14.4193 130.961 14.7891V20H129.266ZM147.125 20.1641C146.297 20.1641 145.586 19.987 144.992 19.6328C144.398 19.2734 143.94 18.7656 143.617 18.1094C143.299 17.4531 143.141 16.6771 143.141 15.7812V15.7734C143.141 14.888 143.299 14.1146 143.617 13.4531C143.94 12.7917 144.393 12.276 144.977 11.9062C145.565 11.5365 146.253 11.3516 147.039 11.3516C147.831 11.3516 148.51 11.5286 149.078 11.8828C149.651 12.237 150.091 12.7344 150.398 13.375C150.706 14.0104 150.859 14.7552 150.859 15.6094V16.2031H144V14.9922H150.016L149.203 16.1172V15.4375C149.203 14.8333 149.109 14.3333 148.922 13.9375C148.74 13.5365 148.487 13.237 148.164 13.0391C147.841 12.8411 147.469 12.7422 147.047 12.7422C146.625 12.7422 146.247 12.8464 145.914 13.0547C145.586 13.2578 145.326 13.5599 145.133 13.9609C144.945 14.362 144.852 14.8542 144.852 15.4375V16.1172C144.852 16.6745 144.945 17.151 145.133 17.5469C145.32 17.9427 145.586 18.2448 145.93 18.4531C146.279 18.6615 146.69 18.7656 147.164 18.7656C147.529 18.7656 147.841 18.7161 148.102 18.6172C148.367 18.513 148.583 18.3854 148.75 18.2344C148.922 18.0833 149.039 17.9349 149.102 17.7891L149.133 17.7266H150.773L150.758 17.7969C150.685 18.0781 150.557 18.3594 150.375 18.6406C150.193 18.9167 149.951 19.1693 149.648 19.3984C149.352 19.6276 148.992 19.8125 148.57 19.9531C148.154 20.0938 147.672 20.1641 147.125 20.1641ZM160.32 20.1641C159.638 20.1641 159.044 20.0651 158.539 19.8672C158.034 19.6641 157.633 19.3854 157.336 19.0312C157.039 18.6719 156.865 18.2552 156.812 17.7812V17.7656H158.516V17.7812C158.625 18.099 158.833 18.3568 159.141 18.5547C159.448 18.7526 159.854 18.8516 160.359 18.8516C160.708 18.8516 161.013 18.8021 161.273 18.7031C161.539 18.6042 161.747 18.4661 161.898 18.2891C162.049 18.112 162.125 17.9089 162.125 17.6797V17.6641C162.125 17.3984 162.018 17.1745 161.805 16.9922C161.591 16.8099 161.24 16.6615 160.75 16.5469L159.391 16.2344C158.594 16.0521 158.003 15.7734 157.617 15.3984C157.237 15.0182 157.047 14.5182 157.047 13.8984V13.8906C157.047 13.3958 157.188 12.9583 157.469 12.5781C157.75 12.1927 158.138 11.8932 158.633 11.6797C159.133 11.4609 159.703 11.3516 160.344 11.3516C160.99 11.3516 161.552 11.4531 162.031 11.6562C162.516 11.8542 162.898 12.1302 163.18 12.4844C163.461 12.8333 163.628 13.2396 163.68 13.7031V13.7109H162.055V13.6953C161.977 13.3984 161.789 13.151 161.492 12.9531C161.201 12.7552 160.815 12.6562 160.336 12.6562C160.029 12.6562 159.755 12.7057 159.516 12.8047C159.276 12.8984 159.086 13.0312 158.945 13.2031C158.81 13.3698 158.742 13.5677 158.742 13.7969V13.8125C158.742 14.0781 158.846 14.2969 159.055 14.4688C159.263 14.6406 159.604 14.7839 160.078 14.8984L161.43 15.2031C162.242 15.3958 162.846 15.6745 163.242 16.0391C163.643 16.4036 163.844 16.8932 163.844 17.5078V17.5234C163.844 18.0443 163.69 18.5052 163.383 18.9062C163.076 19.3021 162.656 19.612 162.125 19.8359C161.599 20.0547 160.997 20.1641 160.32 20.1641ZM169 20.0547C168.073 20.0547 167.401 19.8776 166.984 19.5234C166.573 19.1641 166.367 18.5781 166.367 17.7656V12.8516H165.039V11.5156H166.367V9.375H168.102V11.5156H169.922V12.8516H168.102V17.3516C168.102 17.8099 168.193 18.1406 168.375 18.3438C168.557 18.5417 168.859 18.6406 169.281 18.6406C169.406 18.6406 169.513 18.638 169.602 18.6328C169.695 18.6276 169.802 18.6198 169.922 18.6094V19.9688C169.786 19.9896 169.641 20.0078 169.484 20.0234C169.328 20.0443 169.167 20.0547 169 20.0547ZM174.734 20.1641C174.099 20.1641 173.562 20.0417 173.125 19.7969C172.693 19.5469 172.367 19.1875 172.148 18.7188C171.935 18.2448 171.828 17.6745 171.828 17.0078V11.5156H173.523V16.6094C173.523 17.3073 173.661 17.8307 173.938 18.1797C174.214 18.5286 174.664 18.7031 175.289 18.7031C175.737 18.7031 176.115 18.6146 176.422 18.4375C176.734 18.2552 176.969 18 177.125 17.6719C177.281 17.3385 177.359 16.9453 177.359 16.4922V11.5156H179.062V20H177.359V18.7188H177.234C177.031 19.1719 176.719 19.526 176.297 19.7812C175.875 20.0365 175.354 20.1641 174.734 20.1641ZM182.32 20V12.8516H180.922V11.5156H182.32V10.625C182.32 9.78125 182.536 9.15104 182.969 8.73438C183.406 8.31771 184.068 8.10938 184.953 8.10938C185.141 8.10938 185.315 8.11719 185.477 8.13281C185.643 8.14323 185.802 8.16146 185.953 8.1875V9.4375C185.875 9.42188 185.779 9.41146 185.664 9.40625C185.555 9.39583 185.435 9.39062 185.305 9.39062C184.836 9.39062 184.5 9.5026 184.297 9.72656C184.099 9.95052 184 10.276 184 10.7031V11.5156H185.875V12.8516H184.016V20H182.32ZM188.414 20V12.8516H187.016V11.5156H188.414V10.625C188.414 9.78125 188.63 9.15104 189.062 8.73438C189.5 8.31771 190.161 8.10938 191.047 8.10938C191.234 8.10938 191.409 8.11719 191.57 8.13281C191.737 8.14323 191.896 8.16146 192.047 8.1875V9.4375C191.969 9.42188 191.872 9.41146 191.758 9.40625C191.648 9.39583 191.529 9.39062 191.398 9.39062C190.93 9.39062 190.594 9.5026 190.391 9.72656C190.193 9.95052 190.094 10.276 190.094 10.7031V11.5156H191.969V12.8516H190.109V20H188.414ZM196.602 20.1641C195.919 20.1641 195.326 20.0651 194.82 19.8672C194.315 19.6641 193.914 19.3854 193.617 19.0312C193.32 18.6719 193.146 18.2552 193.094 17.7812V17.7656H194.797V17.7812C194.906 18.099 195.115 18.3568 195.422 18.5547C195.729 18.7526 196.135 18.8516 196.641 18.8516C196.99 18.8516 197.294 18.8021 197.555 18.7031C197.82 18.6042 198.029 18.4661 198.18 18.2891C198.331 18.112 198.406 17.9089 198.406 17.6797V17.6641C198.406 17.3984 198.299 17.1745 198.086 16.9922C197.872 16.8099 197.521 16.6615 197.031 16.5469L195.672 16.2344C194.875 16.0521 194.284 15.7734 193.898 15.3984C193.518 15.0182 193.328 14.5182 193.328 13.8984V13.8906C193.328 13.3958 193.469 12.9583 193.75 12.5781C194.031 12.1927 194.419 11.8932 194.914 11.6797C195.414 11.4609 195.984 11.3516 196.625 11.3516C197.271 11.3516 197.833 11.4531 198.312 11.6562C198.797 11.8542 199.18 12.1302 199.461 12.4844C199.742 12.8333 199.909 13.2396 199.961 13.7031V13.7109H198.336V13.6953C198.258 13.3984 198.07 13.151 197.773 12.9531C197.482 12.7552 197.096 12.6562 196.617 12.6562C196.31 12.6562 196.036 12.7057 195.797 12.8047C195.557 12.8984 195.367 13.0312 195.227 13.2031C195.091 13.3698 195.023 13.5677 195.023 13.7969V13.8125C195.023 14.0781 195.128 14.2969 195.336 14.4688C195.544 14.6406 195.885 14.7839 196.359 14.8984L197.711 15.2031C198.523 15.3958 199.128 15.6745 199.523 16.0391C199.924 16.4036 200.125 16.8932 200.125 17.5078V17.5234C200.125 18.0443 199.971 18.5052 199.664 18.9062C199.357 19.3021 198.938 19.612 198.406 19.8359C197.88 20.0547 197.279 20.1641 196.602 20.1641ZM206.523 20V11.5156H208.227V20H206.523ZM207.383 10C207.091 10 206.841 9.89583 206.633 9.6875C206.424 9.47917 206.32 9.22917 206.32 8.9375C206.32 8.64583 206.424 8.39844 206.633 8.19531C206.841 7.98698 207.091 7.88281 207.383 7.88281C207.674 7.88281 207.924 7.98698 208.133 8.19531C208.341 8.39844 208.445 8.64583 208.445 8.9375C208.445 9.22917 208.341 9.47917 208.133 9.6875C207.924 9.89583 207.674 10 207.383 10ZM215.047 20V11.5156H216.742V12.8203H216.875C217.062 12.3516 217.354 11.9896 217.75 11.7344C218.151 11.4792 218.63 11.3516 219.188 11.3516C219.573 11.3516 219.919 11.4141 220.227 11.5391C220.534 11.6641 220.797 11.8411 221.016 12.0703C221.24 12.2943 221.414 12.5599 221.539 12.8672H221.672C221.812 12.5599 222.01 12.2943 222.266 12.0703C222.521 11.8411 222.818 11.6641 223.156 11.5391C223.5 11.4141 223.865 11.3516 224.25 11.3516C224.823 11.3516 225.312 11.4635 225.719 11.6875C226.125 11.9062 226.435 12.224 226.648 12.6406C226.862 13.0573 226.969 13.5599 226.969 14.1484V20H225.273V14.5547C225.273 13.9714 225.138 13.5339 224.867 13.2422C224.602 12.9505 224.193 12.8047 223.641 12.8047C223.281 12.8047 222.966 12.888 222.695 13.0547C222.43 13.2161 222.221 13.4349 222.07 13.7109C221.924 13.9818 221.852 14.2891 221.852 14.6328V20H220.156V14.3828C220.156 13.8984 220.008 13.5156 219.711 13.2344C219.419 12.9479 219.023 12.8047 218.523 12.8047C218.185 12.8047 217.88 12.8932 217.609 13.0703C217.344 13.2474 217.133 13.487 216.977 13.7891C216.82 14.0859 216.742 14.4193 216.742 14.7891V20H215.047ZM231.672 20.1406C231.135 20.1406 230.654 20.0391 230.227 19.8359C229.805 19.6276 229.471 19.3333 229.227 18.9531C228.982 18.5729 228.859 18.1276 228.859 17.6172V17.6016C228.859 16.8411 229.133 16.2474 229.68 15.8203C230.232 15.388 231.013 15.1406 232.023 15.0781L235.156 14.8906V16.0859L232.258 16.2734C231.674 16.3099 231.245 16.4349 230.969 16.6484C230.693 16.8568 230.555 17.151 230.555 17.5312V17.5469C230.555 17.9323 230.703 18.237 231 18.4609C231.297 18.6797 231.672 18.7891 232.125 18.7891C232.547 18.7891 232.922 18.7057 233.25 18.5391C233.583 18.3672 233.844 18.138 234.031 17.8516C234.219 17.5599 234.312 17.2318 234.312 16.8672V14.1953C234.312 13.7266 234.167 13.3698 233.875 13.125C233.589 12.875 233.161 12.75 232.594 12.75C232.12 12.75 231.732 12.8333 231.43 13C231.133 13.1667 230.935 13.401 230.836 13.7031L230.82 13.7266H229.188L229.195 13.6719C229.263 13.2031 229.448 12.7969 229.75 12.4531C230.057 12.1042 230.458 11.8333 230.953 11.6406C231.453 11.4479 232.023 11.3516 232.664 11.3516C233.378 11.3516 233.982 11.4661 234.477 11.6953C234.977 11.9193 235.354 12.2448 235.609 12.6719C235.87 13.0938 236 13.6016 236 14.1953V20H234.312V18.7969H234.188C234.021 19.0833 233.812 19.3281 233.562 19.5312C233.312 19.7292 233.029 19.8802 232.711 19.9844C232.393 20.0885 232.047 20.1406 231.672 20.1406ZM241.484 20.1406C240.776 20.1406 240.156 19.9635 239.625 19.6094C239.099 19.25 238.69 18.7422 238.398 18.0859C238.112 17.4297 237.969 16.6562 237.969 15.7656V15.75C237.969 14.8542 238.112 14.0781 238.398 13.4219C238.685 12.7656 239.091 12.2604 239.617 11.9062C240.143 11.5469 240.766 11.3672 241.484 11.3672C242.068 11.3672 242.591 11.5026 243.055 11.7734C243.523 12.0391 243.87 12.401 244.094 12.8594H244.219V8.1875H245.922V20H244.219V18.6641H244.094C243.849 19.1276 243.503 19.4896 243.055 19.75C242.607 20.0104 242.083 20.1406 241.484 20.1406ZM241.969 18.6875C242.438 18.6875 242.844 18.5703 243.188 18.3359C243.531 18.1016 243.794 17.7656 243.977 17.3281C244.159 16.8854 244.25 16.3646 244.25 15.7656V15.75C244.25 15.1458 244.156 14.625 243.969 14.1875C243.786 13.75 243.523 13.4141 243.18 13.1797C242.841 12.9401 242.438 12.8203 241.969 12.8203C241.5 12.8203 241.094 12.9401 240.75 13.1797C240.411 13.4141 240.151 13.75 239.969 14.1875C239.792 14.6198 239.703 15.1406 239.703 15.75V15.7656C239.703 16.3698 239.792 16.8906 239.969 17.3281C240.151 17.7656 240.411 18.1016 240.75 18.3359C241.094 18.5703 241.5 18.6875 241.969 18.6875ZM252 20.1641C251.172 20.1641 250.461 19.987 249.867 19.6328C249.273 19.2734 248.815 18.7656 248.492 18.1094C248.174 17.4531 248.016 16.6771 248.016 15.7812V15.7734C248.016 14.888 248.174 14.1146 248.492 13.4531C248.815 12.7917 249.268 12.276 249.852 11.9062C250.44 11.5365 251.128 11.3516 251.914 11.3516C252.706 11.3516 253.385 11.5286 253.953 11.8828C254.526 12.237 254.966 12.7344 255.273 13.375C255.581 14.0104 255.734 14.7552 255.734 15.6094V16.2031H248.875V14.9922H254.891L254.078 16.1172V15.4375C254.078 14.8333 253.984 14.3333 253.797 13.9375C253.615 13.5365 253.362 13.237 253.039 13.0391C252.716 12.8411 252.344 12.7422 251.922 12.7422C251.5 12.7422 251.122 12.8464 250.789 13.0547C250.461 13.2578 250.201 13.5599 250.008 13.9609C249.82 14.362 249.727 14.8542 249.727 15.4375V16.1172C249.727 16.6745 249.82 17.151 250.008 17.5469C250.195 17.9427 250.461 18.2448 250.805 18.4531C251.154 18.6615 251.565 18.7656 252.039 18.7656C252.404 18.7656 252.716 18.7161 252.977 18.6172C253.242 18.513 253.458 18.3854 253.625 18.2344C253.797 18.0833 253.914 17.9349 253.977 17.7891L254.008 17.7266H255.648L255.633 17.7969C255.56 18.0781 255.432 18.3594 255.25 18.6406C255.068 18.9167 254.826 19.1693 254.523 19.3984C254.227 19.6276 253.867 19.8125 253.445 19.9531C253.029 20.0938 252.547 20.1641 252 20.1641Z" fill="white"/>
</svg>
